<svg fill="#3C4040" xmlns="http://www.w3.org/2000/svg" xmlns:xlink="http://www.w3.org/1999/xlink" version="1.2" baseProfile="tiny" x="0px" y="0px" viewBox="0 0 100 100" xml:space="preserve"><path d="M87.375,7.197C85.958,5.78,84.074,5,82.071,5c-2.003,0-3.887,0.78-5.303,2.197L11.982,71.982   c-0.132,0.132-0.243,0.277-0.34,0.429c-0.027,0.043-0.046,0.09-0.071,0.135c-0.063,0.115-0.121,0.231-0.165,0.352   c-0.008,0.021-0.021,0.039-0.028,0.06l-6.25,18.75c-0.3,0.898-0.066,1.89,0.604,2.559C6.209,94.744,6.848,95,7.5,95   c0.264,0,0.531-0.042,0.79-0.128l18.75-6.25c0.022-0.007,0.04-0.021,0.062-0.029c0.122-0.044,0.238-0.102,0.353-0.165   c0.044-0.024,0.09-0.043,0.133-0.07c0.152-0.097,0.297-0.208,0.43-0.34l64.786-64.785c0,0,0,0,0,0   C94.22,21.815,95,19.932,95,17.929s-0.78-3.887-2.197-5.303L87.375,7.197z M11.453,88.547l3.39-10.169l6.779,6.779L11.453,88.547z    M26.25,82.714l-8.964-8.964L73.136,17.9c0.034,0.038,0.06,0.081,0.096,0.118l8.75,8.75c0.037,0.037,0.08,0.063,0.118,0.097   L26.25,82.714z M89.268,19.697l-3.654,3.654c-0.034-0.039-0.06-0.082-0.097-0.118l-8.75-8.75c-0.037-0.037-0.079-0.062-0.118-0.096   l3.654-3.654c0.944-0.945,2.59-0.945,3.535,0l5.429,5.429C89.74,16.634,90,17.261,90,17.929S89.74,19.225,89.268,19.697   L89.268,19.697z"></path></svg>