<svg fill="#F5D327" xmlns="http://www.w3.org/2000/svg" xmlns:xlink="http://www.w3.org/1999/xlink" viewBox="0 0 150 164" version="1.1" x="0px" y="0px"><title>Group 148</title><desc>Created with Sketch.</desc><g stroke="none" stroke-width="1" fill="none" fill-rule="evenodd"><g transform="translate(-5831.000000, -7296.000000)" fill="#F5D327"><g transform="translate(5831.000000, 7296.000000)"><path d="M76.8233,87.4432 C54.6063,87.4432 36.5303,69.3672 36.5303,47.1502 C36.5303,24.9332 54.6063,6.8592 76.8233,6.8592 C99.0403,6.8592 117.1163,24.9332 117.1163,47.1502 C117.1163,69.3672 99.0403,87.4432 76.8233,87.4432 L76.8233,87.4432 Z M115.3113,74.0342 C120.6523,66.4112 123.7993,57.1442 123.7993,47.1502 C123.7993,21.2492 102.7253,0.1762 76.8233,0.1762 C50.9213,0.1762 29.8483,21.2492 29.8483,47.1502 C29.8483,55.5912 32.0973,63.5122 36.0113,70.3662 L0.2453,142.0582 L34.0393,129.4132 L44.2623,164.0182 L74.7463,102.9152 L105.2293,164.0182 L105.2293,164.0182 L115.4523,129.4132 L149.2473,142.0582 L149.2473,142.0582 L115.3113,74.0342 Z"></path><polygon points="84.4537 37.2186 76.8237 21.7576 69.1927 37.2186 52.1307 39.6976 64.4767 51.7326 61.5627 68.7256 76.8237 60.7026 92.0837 68.7256 89.1697 51.7326 101.5157 39.6976"></polygon></g></g></g></svg>