<svg fill="#51A7F9" xmlns="http://www.w3.org/2000/svg" xmlns:xlink="http://www.w3.org/1999/xlink" version="1.1" x="0px" y="0px" viewBox="0 0 100 100" enable-background="new 0 0 100 100" xml:space="preserve"><g><path d="M87.104,16.465C78.845,9.072,68.189,5,57.106,5c-24.814,0-45,20.188-45,45s20.186,45,45,45   c10.263,0,19.935-3.375,27.97-9.76c0.864-0.686,1.14-1.88,0.662-2.876s-1.581-1.529-2.656-1.289   c-2.283,0.515-4.606,0.774-6.903,0.774c-15.129,0-28.075-10.785-30.779-25.643c-0.234-1.287-1.468-2.138-2.754-1.906   c-1.289,0.236-2.142,1.469-1.907,2.756c2.991,16.42,16.837,28.52,33.344,29.469c-5.263,2.461-11.008,3.737-16.976,3.737   c-22.201,0-40.263-18.062-40.263-40.263S34.905,9.737,57.106,9.737c6.712,0,13.248,1.669,19.063,4.799   c-10.279,0.003-20.092,4.412-26.927,12.101c-0.867,0.978-0.779,2.475,0.199,3.344c0.976,0.871,2.473,0.78,3.343-0.197   c5.937-6.68,14.464-10.512,23.394-10.512c2.927,0,5.852,0.415,8.69,1.234c1.063,0.307,2.194-0.162,2.729-1.13   C88.132,18.409,87.928,17.202,87.104,16.465z"></path><path d="M51.13,59.094c0.366,0.885,1.228,1.462,2.186,1.462h13.264c1.309,0,2.369-1.06,2.369-2.368s-1.061-2.367-2.369-2.367   h-7.545l8.271-8.273c0.679-0.678,0.881-1.697,0.515-2.582s-1.23-1.461-2.188-1.461H53.315c-1.307,0-2.367,1.061-2.367,2.368   s1.061,2.368,2.367,2.368h6.598l-8.272,8.272C50.963,57.191,50.761,58.209,51.13,59.094z"></path><path d="M84.579,63.059H78.93l6.513-6.512c0.677-0.678,0.879-1.697,0.513-2.582s-1.23-1.461-2.188-1.461H73.211   c-1.309,0-2.369,1.061-2.369,2.368s1.061,2.368,2.369,2.368h4.838l-6.513,6.514c-0.678,0.676-0.88,1.695-0.514,2.58   s1.23,1.463,2.188,1.463h11.368c1.309,0,2.369-1.061,2.369-2.369S85.888,63.059,84.579,63.059z"></path><path d="M27.443,50.568c0.366,0.885,1.23,1.462,2.188,1.462h18c1.31,0,2.37-1.061,2.37-2.368c0-1.309-1.061-2.369-2.37-2.369   H35.351l12.671-12.671c0.677-0.677,0.879-1.696,0.513-2.581s-1.23-1.462-2.188-1.462H29.632c-1.307,0-2.367,1.061-2.367,2.368   c0,1.309,1.061,2.369,2.367,2.369h10.995L27.959,47.987C27.279,48.664,27.077,49.682,27.443,50.568z"></path></g></svg>