<svg fill="#EC5D57" xmlns="http://www.w3.org/2000/svg" xmlns:xlink="http://www.w3.org/1999/xlink" version="1.1" x="0px" y="0px" viewBox="0 0 100 100" enable-background="new 0 0 100 100" xml:space="preserve"><g><path d="M50,83.5c-0.561,0-1.099-0.227-1.494-0.629L17.162,51.033c-7.765-7.882-7.765-20.715-0.002-28.605   c3.765-3.823,8.772-5.928,14.094-5.928c5.323,0,10.328,2.105,14.087,5.928L50,27.155l4.652-4.73   c3.763-3.82,8.768-5.925,14.091-5.925c5.322,0,10.326,2.105,14.089,5.925c7.772,7.893,7.772,20.726-0.002,28.608L51.491,82.871   C51.096,83.273,50.561,83.5,50,83.5z M31.254,20.776c-4.193,0-8.14,1.657-11.109,4.672c-6.119,6.222-6.121,16.343,0,22.56   L50,78.336l29.844-30.324c6.136-6.22,6.136-16.341,0-22.563c-2.967-3.016-6.911-4.672-11.101-4.672   c-4.198,0-8.138,1.657-11.103,4.669l-6.149,6.249c-0.791,0.801-2.195,0.801-2.985,0l-6.146-6.245   C39.393,22.433,35.448,20.776,31.254,20.776z"></path></g><g><path d="M57.031,63.768c-0.78,0-1.502-0.437-1.868-1.146l-7.354-14.236l-5.076,9.906c-0.373,0.724-1.093,1.145-1.92,1.153   c-0.805-0.021-1.527-0.499-1.866-1.235l-8.563-18.664l-4.815,11.301c-0.333,0.786-1.095,1.292-1.936,1.292H5v-4.276h17.246   l6.131-14.389c0.329-0.774,1.076-1.281,1.909-1.292c0.777,0.078,1.59,0.473,1.938,1.236l8.74,19.048l4.966-9.687   c0.362-0.708,1.082-1.153,1.871-1.153h0.002c0.786,0,1.505,0.442,1.867,1.147l6.969,13.487L66.1,28.628   c0.304-0.885,1.084-1.481,2.071-1.437c0.922,0.037,1.719,0.677,1.962,1.581l4.685,17.664H95v4.276H73.203   c-0.957,0-1.791-0.649-2.038-1.582l-3.327-12.535l-8.813,25.736c-0.278,0.805-1,1.365-1.838,1.431   C57.136,63.765,57.081,63.768,57.031,63.768z"></path></g></svg>