<svg fill="#05C3D1" xmlns:dc="http://purl.org/dc/elements/1.1/" xmlns:cc="http://creativecommons.org/ns#" xmlns:rdf="http://www.w3.org/1999/02/22-rdf-syntax-ns#" xmlns:svg="http://www.w3.org/2000/svg" xmlns="http://www.w3.org/2000/svg" xmlns:sodipodi="http://sodipodi.sourceforge.net/DTD/sodipodi-0.dtd" xmlns:inkscape="http://www.inkscape.org/namespaces/inkscape" viewBox="0 0 1152.7139 1152.4403" version="1.1" x="0px" y="0px"><g transform="translate(27692.221,9619.4771)"><path style="" d="" fill="#05C3D1"></path><path style="" d="m -27169.027,-8468.7794 c -109.212,-10.8404 -207.531,-48.9146 -293.707,-113.7383 -130.593,-98.2354 -211.705,-244.0654 -227.509,-409.0334 -3.702,-38.636 -2.09,-95.627 3.849,-136.161 28.578,-195.028 157.009,-363.429 338.035,-443.236 45.521,-20.069 99.233,-35.579 147.913,-42.712 52.931,-7.756 116.244,-7.756 169.175,0 195.027,28.578 363.428,157.009 443.236,338.035 20.068,45.521 35.578,99.233 42.711,147.913 7.756,52.931 7.756,116.244 0,169.175 -21.971,149.942 -103.984,287.0324 -226.113,377.9607 -85.78,63.8664 -184.115,101.4195 -292.848,111.8359 -23.892,2.2889 -81.506,2.2675 -104.742,-0.039 z m -18.082,-392.4707 0,-60.625 71.25,0 71.25,0 0,60.625 0,60.625 57.5,0 57.5,0 0,-111.25 0,-111.25 37.5,0 c 20.625,0 37.5,-0.466 37.5,-1.035 0,-1.573 -123.935,-125.215 -125.511,-125.215 -0.755,0 -31.708,-30.34 -68.786,-67.422 l -67.413,-67.422 -130.395,129.456 c -71.717,71.201 -130.395,129.947 -130.395,130.547 0,0.6 17.156,1.091 38.125,1.091 l 38.125,0 0,111.25 0,111.25 56.875,0 56.875,0 0,-60.625 z" fill="#05C3D1"></path></g></svg>