<svg fill="#999999" xmlns:dc="http://purl.org/dc/elements/1.1/" xmlns:cc="http://creativecommons.org/ns#" xmlns:rdf="http://www.w3.org/1999/02/22-rdf-syntax-ns#" xmlns:svg="http://www.w3.org/2000/svg" xmlns="http://www.w3.org/2000/svg" xmlns:sodipodi="http://sodipodi.sourceforge.net/DTD/sodipodi-0.dtd" xmlns:inkscape="http://www.inkscape.org/namespaces/inkscape" version="1.1" x="0px" y="0px" viewBox="0 0 100 100"><g transform="translate(0,-952.36218)"><path style="color:#000000;enable-background:accumulate;" d="m 50,962.36218 c -22.09139,0 -40,17.9086 -40,40.00002 0,22.0914 17.90861,40 40,40 22.09139,0 40,-17.9086 40,-40 0,-22.09142 -17.90861,-40.00002 -40,-40.00002 z m -20.1875,38.00002 c 13.37914,-2e-4 26.79527,0 40.1875,0 1.05929,-0.019 2.03662,0.9405 2.03662,2 0,1.0595 -0.97733,2.0192 -2.03662,2 l -40,0 c -1.04732,0.049 -2.04506,-0.8589 -2.09415,-1.9062 -0.0491,-1.0474 0.85931,-2.0449 1.90665,-2.0938 z" fill="#999999" stroke="none" marker="none" visibility="visible" display="inline" overflow="visible"></path></g></svg>