<svg fill="#70C041" xmlns="http://www.w3.org/2000/svg" xmlns:xlink="http://www.w3.org/1999/xlink" version="1.1" x="0px" y="0px" viewBox="0 0 91 91" enable-background="new 0 0 91 91" xml:space="preserve"><g><path d="M75.225,41.296c-3.468-6.376-9.135-10.894-15.957-12.723c0,0-9.928-2.644-10.015-2.667   c1.618-2.438,4.929-5.533,11.281-5.533c0.631,0,2.231,0.104,2.231,0.104c1.404,0,2.563-1.06,2.691-2.469   c0.068-0.722-0.153-1.426-0.619-1.983c-0.465-0.559-1.118-0.9-1.835-0.967c-0.839-0.076-1.669-0.116-2.471-0.116   c-3.147,0-5.755,0.596-7.929,1.515c-0.29-2.409-0.838-5.494-2.086-7.787C46.994,2.198,38.1,0.529,37.747,0.457   c-1.362-0.273-2.688,0.524-3.115,1.805c-0.285,0.854-2.678,8.542,0.927,14.786c2.127,3.683,5.783,5.813,8.564,6.976   c-0.097,0.166-0.198,0.333-0.283,0.488c-0.416-0.146-0.835-0.292-1.257-0.404c-1.531-0.412-3.115-0.621-4.71-0.621   c-10.498,0-20.558,9.107-23.919,21.655c-1.884,7.034-1.926,16.128-0.11,23.734c2.167,9.079,6.546,14.929,12.326,16.477   c1.154,0.31,2.351,0.503,3.564,0.577c1.015,0.504,2.065,0.9,3.121,1.2c1.161,0.5,3.683,1.155,8.083,2.221l0.429,0.104   c0.665,0.161,1.192,0.29,1.487,0.368c1.364,0.366,2.794,0.553,4.25,0.553c10.945,0,21.649-10.195,26.966-19.669   c0.553-0.985,1.065-1.994,1.531-3.001c0.856-1.859,1.534-3.713,2.015-5.508C79.527,55.069,78.676,47.646,75.225,41.296z    M40.26,14.333c-1.419-2.459-1.339-5.587-1.039-7.728c2.241,0.73,5.145,2.206,6.496,4.711c1.69,3.134,1.585,6.527,1.726,8.048   c0.004,0.037,0.016,0.071,0.021,0.108C45.448,18.787,41.94,17.241,40.26,14.333z M36.249,82.191c-0.602,0-1.183-0.074-1.734-0.225   c-0.94-0.252-1.869-0.625-2.779-1.118c-0.374-0.198-0.792-0.31-1.208-0.319c-1.02-0.028-2.013-0.171-2.955-0.422   c-3.656-0.979-6.816-5.65-8.448-12.493c-1.62-6.78-1.592-14.854,0.074-21.072c2.737-10.214,10.592-17.629,18.674-17.629   c1.119,0,2.229,0.146,3.305,0.437c0.934,0.249,1.867,0.621,2.748,1.096c1.092,0.41,2.717,0.318,4.19,0.764   c4.034,1.221,7.428,4.173,9.448,8.684c2.257,5.037,2.606,11.145,0.988,17.198C55.524,68.39,44.64,82.191,36.249,82.191z    M72.374,60.792c-0.406,1.508-0.978,3.069-1.705,4.644c-0.397,0.864-0.848,1.746-1.333,2.615   c-4.717,8.4-13.837,16.907-22.149,16.907c-0.683,0-1.347-0.081-2-0.197c8.32-5.078,15.887-16.113,18.608-26.267   c1.943-7.253,1.489-14.647-1.276-20.82c-0.419-0.932-0.896-1.802-1.403-2.644C70.257,39.3,75.23,50.126,72.374,60.792z"></path><path d="M50.638,56.948c0.155-1.582-0.315-3.132-1.324-4.36c-1.134-1.385-2.812-2.179-4.602-2.179   c-1.373,0-2.714,0.482-3.777,1.355c-1.696,1.393-2.942,5.059-3.692,7.896c-0.216,0.84-0.017,1.74,0.53,2.404   c0.517,0.631,1.282,0.991,2.099,0.991h0.12l0.047-0.001c2.385-0.148,6.659-0.614,8.458-2.092   C49.722,59.953,50.483,58.526,50.638,56.948z M45.112,56.722c-0.131,0.076-0.56,0.219-1.293,0.378   c0.289-0.682,0.496-1.058,0.559-1.139c0.097-0.08,0.207-0.12,0.334-0.12c0.162,0,0.304,0.066,0.411,0.195   c0.089,0.106,0.127,0.237,0.112,0.378C45.221,56.559,45.156,56.681,45.112,56.722z"></path><path d="M37.029,51.061c-0.866-2.31-3.105-3.859-5.573-3.859c-0.714,0-1.418,0.129-2.093,0.38   c-3.073,1.154-4.634,4.597-3.479,7.669c0.817,2.171,4.285,4.714,6.277,6.036c0.45,0.296,0.967,0.452,1.502,0.452   c0.321,0,0.638-0.058,0.958-0.175c0.813-0.308,1.434-0.991,1.658-1.825C36.912,57.431,37.848,53.233,37.029,51.061z M31.863,54.24   c-0.549-0.492-0.838-0.81-0.896-0.9c-0.103-0.27,0.038-0.574,0.296-0.673c0.066-0.024,0.133-0.036,0.193-0.036   c0.217,0,0.416,0.139,0.467,0.261C31.954,53.041,31.953,53.491,31.863,54.24z"></path></g></svg>