<svg fill="#F38F19" xmlns:dc="http://purl.org/dc/elements/1.1/" xmlns:cc="http://creativecommons.org/ns#" xmlns:rdf="http://www.w3.org/1999/02/22-rdf-syntax-ns#" xmlns:svg="http://www.w3.org/2000/svg" xmlns="http://www.w3.org/2000/svg" version="1.1" viewBox="0 0 100 100" xml:space="preserve" x="0px" y="0px"><path d="M 37.96875,5 C 37.389445,5 36.409645,11.559117 36,11.96875 c -0.409645,0.409645 -6.96875,1.389433 -6.96875,1.96875 0,0.579317 6.559105,1.559106 6.96875,1.96875 0.409645,0.409633 1.389445,6.96875 1.96875,6.96875 0.579329,0 1.590367,-6.559106 2,-6.96875 0.409645,-0.409633 6.96875,-1.389433 6.96875,-1.96875 0,-0.579317 -6.559105,-1.559105 -6.96875,-1.96875 C 39.559117,11.559117 38.548079,5 37.96875,5 z M 68.5,9.9375 c -0.679114,0 -1.832284,7.676045 -2.3125,8.15625 C 65.707284,18.573965 58,19.727125 58,20.40625 c 0,0.679126 7.707284,1.832284 8.1875,2.3125 0.480216,0.480204 1.633386,8.1875 2.3125,8.1875 0.679138,0 1.832284,-7.707284 2.3125,-8.1875 0.480216,-0.480204 8.15625,-1.633374 8.15625,-2.3125 0,-0.679125 -7.676034,-1.832285 -8.15625,-2.3125 C 70.332284,17.613545 69.179138,9.9375 68.5,9.9375 z M 23.8125,24.09375 c -0.938621,0 -2.555045,10.648794 -3.21875,11.3125 -0.663717,0.663717 -11.28125,2.248879 -11.28125,3.1875 0,0.938633 10.617533,2.555033 11.28125,3.21875 0.663705,0.663694 2.280129,11.28125 3.21875,11.28125 0.938634,0 2.523783,-10.617544 3.1875,-11.28125 0.663706,-0.663705 11.28125,-2.280117 11.28125,-3.21875 0,-0.938621 -10.617544,-2.523783 -11.28125,-3.1875 -0.663717,-0.663706 -2.248866,-11.3125 -3.1875,-11.3125 z m 53,4.9375 c -0.898691,0 -2.427019,10.17703 -3.0625,10.8125 -0.635482,0.635481 -10.8125,2.163797 -10.8125,3.0625 0,0.898702 10.177018,2.427018 10.8125,3.0625 0.635481,0.63547 2.163809,10.8125 3.0625,10.8125 0.898714,0 2.427018,-10.177018 3.0625,-10.8125 0.635482,-0.63547 10.8125,-2.163798 10.8125,-3.0625 0,-0.898703 -10.177018,-2.427019 -10.8125,-3.0625 -0.635482,-0.63547 -2.163786,-10.8125 -3.0625,-10.8125 z m -29.59375,4.9375 c -1.976615,0 -5.352325,22.383563 -6.75,23.78125 -1.397687,1.397687 -23.75,4.742135 -23.75,6.71875 0,1.976639 22.352313,5.352313 23.75,6.75 C 41.866425,72.616414 45.242135,95 47.21875,95 c 1.976639,0 5.352313,-22.383563 6.75,-23.78125 C 55.366437,69.821086 77.75,66.445389 77.75,64.46875 77.75,62.492135 55.366437,59.147687 53.96875,57.75 52.571063,56.352313 49.195389,33.96875 47.21875,33.96875 z M 18.5625,74.65625 c -0.559346,0 -1.510717,6.323241 -1.90625,6.71875 -0.395521,0.395533 -6.71875,1.346893 -6.71875,1.90625 0,0.559358 6.323229,1.510729 6.71875,1.90625 0.395533,0.395521 1.346904,6.71875 1.90625,6.71875 0.55937,0 1.510729,-6.323229 1.90625,-6.71875 0.395533,-0.395521 6.71875,-1.346892 6.71875,-1.90625 0,-0.559357 -6.323217,-1.510717 -6.71875,-1.90625 -0.395521,-0.395509 -1.34688,-6.71875 -1.90625,-6.71875 z" style="" fill="#F38F19" fill-opacity="1" stroke="none"></path></svg>