<svg fill="#EC5D57" xmlns="http://www.w3.org/2000/svg" data-name="Layer 1" viewBox="0 0 100 100" x="0px" y="0px"><title>first_glyph_Set_random</title><path d="M36,12.19V6.93a1.17,1.17,0,0,1,1.17-1.17H62.83A1.17,1.17,0,0,1,64,6.93v5.26a1.17,1.17,0,0,1-1.17,1.17H37.17A1.17,1.17,0,0,1,36,12.19Zm43.21,77.2a1.17,1.17,0,0,1-.43,1.6l-5.36,3.1a1.17,1.17,0,0,1-1.6-.43l-3.42-5.92a37.88,37.88,0,0,1-35.87.51h0l-3.12,5.41a1.17,1.17,0,0,1-1.6.43L22.45,91a1.17,1.17,0,0,1-.43-1.6l3.42-5.93h0A37.82,37.82,0,0,1,73.45,25L77,21.44a1.17,1.17,0,0,1,1.65,0l4.38,4.38a1.17,1.17,0,0,1,0,1.65L79.5,31c0.64,0.79,1.25,1.6,1.83,2.44a37.86,37.86,0,0,1-6,49.27ZM62.8,64.61L52.7,54.51v-20H47.3V56.76L48,57.41l11,11Z"></path></svg>