<svg fill="#98A1A2" xmlns="http://www.w3.org/2000/svg" xmlns:xlink="http://www.w3.org/1999/xlink" version="1.1" x="0px" y="0px" viewBox="0 0 125 125" style="enable-background:new 0 0 125 125;" xml:space="preserve"><path d="M62.5,105.5c-23.7,0-43-19.3-43-43s19.3-43,43-43s43,19.3,43,43S86.2,105.5,62.5,105.5z M62.5,25.5c-20.4,0-37,16.6-37,37  s16.6,37,37,37s37-16.6,37-37S82.9,25.5,62.5,25.5z M42.5,55.6c3.8,0,6.9,3.1,6.9,6.9s-3.1,6.9-6.9,6.9s-6.9-3.1-6.9-6.9  S38.7,55.6,42.5,55.6z M62.5,55.6c3.8,0,6.9,3.1,6.9,6.9s-3.1,6.9-6.9,6.9s-6.9-3.1-6.9-6.9S58.7,55.6,62.5,55.6z M82.5,55.6  c3.8,0,6.9,3.1,6.9,6.9s-3.1,6.9-6.9,6.9s-6.9-3.1-6.9-6.9S78.7,55.6,82.5,55.6z"></path></svg>