<svg fill="#8CFF75" xmlns="http://www.w3.org/2000/svg" xmlns:xlink="http://www.w3.org/1999/xlink" version="1.1" x="0px" y="0px" viewBox="0 0 100 100" enable-background="new 0 0 100 100" xml:space="preserve"><g display="none"><rect x="-300.877" y="-37.172" display="inline" fill="#8CFF75" width="1370.931" height="1263.231"></rect></g><g display="none" opacity="0.31"><g display="inline"><path d="M29.624,30.533c5.412,0,9.799-4.387,9.799-9.799c0-5.412-4.387-9.799-9.799-9.799s-9.799,4.387-9.799,9.799    C19.825,26.145,24.212,30.533,29.624,30.533z M29.624,13.934c3.749,0,6.799,3.05,6.799,6.799s-3.05,6.799-6.799,6.799    s-6.799-3.05-6.799-6.799S25.875,13.934,29.624,13.934z"></path><path d="M19.375,67.219v15.605c0,3.441,2.8,6.241,6.242,6.241h8.014c3.442,0,6.242-2.8,6.242-6.241V67.219    c2.976-0.473,5.258-3.057,5.258-6.164V44.229c0-6.456-5.252-11.708-11.708-11.708h-7.599c-6.456,0-11.708,5.252-11.708,11.708    v16.826C14.117,64.162,16.399,66.746,19.375,67.219z M17.117,44.229c0-4.802,3.906-8.708,8.708-8.708h7.599    c4.801,0,8.708,3.906,8.708,8.708v16.826c0,1.787-1.454,3.241-3.241,3.241h-2.017v18.528c0,1.787-1.454,3.241-3.242,3.241h-8.014    c-1.788,0-3.242-1.454-3.242-3.241V64.296h-2.017c-1.787,0-3.241-1.454-3.241-3.241V44.229z"></path><path d="M70.376,30.533c5.412,0,9.799-4.387,9.799-9.799c0-5.412-4.387-9.799-9.799-9.799s-9.799,4.387-9.799,9.799    C60.577,26.145,64.964,30.533,70.376,30.533z M70.376,13.934c3.749,0,6.799,3.05,6.799,6.799s-3.05,6.799-6.799,6.799    s-6.799-3.05-6.799-6.799S66.627,13.934,70.376,13.934z"></path><path d="M60.128,67.219v15.605c0,3.441,2.8,6.241,6.241,6.241h8.014c3.441,0,6.241-2.8,6.241-6.241V67.219    c2.976-0.473,5.259-3.057,5.259-6.164V44.229c0-6.456-5.252-11.708-11.708-11.708h-7.598c-6.456,0-11.708,5.252-11.708,11.708    v16.826C54.869,64.162,57.152,66.746,60.128,67.219z M57.869,44.229c0-4.802,3.906-8.708,8.708-8.708h7.598    c4.802,0,8.708,3.906,8.708,8.708v16.826c0,1.787-1.454,3.241-3.242,3.241h-2.017v18.528c0,1.787-1.454,3.241-3.241,3.241h-8.014    c-1.787,0-3.241-1.454-3.241-3.241V64.296h-2.017c-1.788,0-3.242-1.454-3.242-3.241V44.229z"></path></g></g><g><path d="M50,33.28c5.645,0,10.238-4.593,10.238-10.238c0-5.646-4.593-10.238-10.238-10.238s-10.238,4.593-10.238,10.238   C39.762,28.687,44.355,33.28,50,33.28z"></path><path d="M37.412,48.508h25.176c0,0,0,0,0,0h4.138c0-7.031-5.72-12.751-12.751-12.751h-7.951c-7.031,0-12.751,5.72-12.751,12.751   L37.412,48.508C37.412,48.508,37.412,48.508,37.412,48.508z"></path><path d="M21.726,71.968c5.645,0,10.238-4.593,10.238-10.238c0-5.646-4.593-10.238-10.238-10.238S11.488,56.085,11.488,61.73   C11.488,67.376,16.081,71.968,21.726,71.968z"></path><path d="M9.138,87.196h25.176c0,0,0,0,0,0h4.138c0-7.031-5.72-12.751-12.751-12.751h-7.951C10.72,74.446,5,80.165,5,87.196   L9.138,87.196C9.138,87.196,9.138,87.196,9.138,87.196z"></path><path d="M78.274,71.968c5.645,0,10.238-4.593,10.238-10.238c0-5.646-4.593-10.238-10.238-10.238S68.036,56.085,68.036,61.73   C68.036,67.376,72.629,71.968,78.274,71.968z"></path><path d="M74.298,74.446c-7.031,0-12.751,5.72-12.751,12.751h4.138c0,0,0,0,0,0h25.176c0,0,0,0,0,0H95   c0-7.031-5.72-12.751-12.751-12.751H74.298z"></path></g></svg>