<svg fill="#808AEF" xmlns="http://www.w3.org/2000/svg" xmlns:xlink="http://www.w3.org/1999/xlink" version="1.1" x="0px" y="0px" viewBox="0 0 100 100" style="enable-background:new 0 0 100 100;" xml:space="preserve"><style type="text/css">
	.st0{fill:#808AEF;}
</style><g><path d="M88.1,37.2c-2.5,0-4.5-2-4.5-4.5c0-0.6-0.4-1-1-1H17.2c-0.6,0-1,0.4-1,1s0.4,1,1,1h64.6c0.4,2.8,2.6,5,5.4,5.4v22.5   c0,0.6,0.4,1,1,1s1-0.4,1-1V38.2C89.1,37.6,88.7,37.2,88.1,37.2z"></path><path d="M92.2,33.6c-2.5,0-4.5-2-4.5-4.5c0-0.6-0.4-1-1-1H21.3c-0.6,0-1,0.4-1,1s0.4,1,1,1h64.6c0.4,2.8,2.6,5,5.4,5.4V58   c0,0.6,0.4,1,1,1s1-0.4,1-1V34.6C93.2,34.1,92.8,33.6,92.2,33.6z"></path><path d="M83.7,41.7c-2.5,0-4.5-2-4.5-4.5c0-0.6-0.4-1-1-1H12.7c-0.6,0-1,0.4-1,1c0,2.5-2,4.5-4.5,4.5c-0.6,0-1,0.4-1,1v23.4   c0,0.6,0.4,1,1,1c2.5,0,4.5,2,4.5,4.5c0,0.6,0.4,1,1,1h65.5c0.6,0,1-0.4,1-1c0-2.5,2-4.5,4.5-4.5c0.6,0,1-0.4,1-1V42.7   C84.7,42.1,84.2,41.7,83.7,41.7z M43.1,61.6H15.3c-0.3,0-0.5-0.2-0.5-0.5s0.2-0.5,0.5-0.5h27.8c0.3,0,0.5,0.2,0.5,0.5   S43.4,61.6,43.1,61.6z M14.8,54.7c0-0.3,0.2-0.5,0.5-0.5h22.9c0.3,0,0.5,0.2,0.5,0.5s-0.2,0.5-0.5,0.5H15.3   C15,55.2,14.8,55,14.8,54.7z M46.8,48.9H15.3c-0.3,0-0.5-0.2-0.5-0.5s0.2-0.5,0.5-0.5h31.5c0.3,0,0.5,0.2,0.5,0.5   S47.1,48.9,46.8,48.9z M56.2,70.5c0,0.4-0.3,0.8-0.8,0.8s-0.8-0.3-0.8-0.8v-1c0-0.4,0.3-0.8,0.8-0.8s0.8,0.3,0.8,0.8V70.5z    M56.2,65.3c0,0.4-0.3,0.8-0.8,0.8s-0.8-0.3-0.8-0.8v-1c0-0.4,0.3-0.8,0.8-0.8s0.8,0.3,0.8,0.8V65.3z M56.2,60.1   c0,0.4-0.3,0.8-0.8,0.8s-0.8-0.3-0.8-0.8v-1c0-0.4,0.3-0.8,0.8-0.8s0.8,0.3,0.8,0.8V60.1z M56.2,54.9c0,0.4-0.3,0.8-0.8,0.8   s-0.8-0.3-0.8-0.8v-1c0-0.4,0.3-0.8,0.8-0.8s0.8,0.3,0.8,0.8V54.9z M56.2,49.7c0,0.4-0.3,0.8-0.8,0.8s-0.8-0.3-0.8-0.8v-1   c0-0.4,0.3-0.8,0.8-0.8s0.8,0.3,0.8,0.8V49.7z M56.2,44.5c0,0.4-0.3,0.8-0.8,0.8s-0.8-0.3-0.8-0.8v-1c0-0.4,0.3-0.8,0.8-0.8   s0.8,0.3,0.8,0.8V44.5z M56.2,39.3c0,0.4-0.3,0.8-0.8,0.8s-0.8-0.3-0.8-0.8v-1c0-0.4,0.3-0.8,0.8-0.8s0.8,0.3,0.8,0.8V39.3z    M75.8,52.8l-3.6,2.6l1.4,4.2c0.2,0.6-0.5,1.1-1,0.7l-3.6-2.6l-3.6,2.6c-0.5,0.4-1.2-0.1-1-0.7l1.4-4.2l-3.6-2.6   c-0.5-0.4-0.2-1.2,0.4-1.2h4.4l1.4-4.2c0.2-0.6,1-0.6,1.2,0l1.4,4.2h4.4C76.1,51.6,76.3,52.4,75.8,52.8z"></path></g></svg>